<svg width="274" height="200" viewBox="0 0 274 200" fill="none" xmlns="http://www.w3.org/2000/svg">
<path opacity="0.3" fill-rule="evenodd" clip-rule="evenodd" d="M143.358 229.576C192.745 228.878 230.428 198.235 250.07 154.204L274 167.18C260.708 199.785 219.145 254 142.107 254C61.4495 254 0 188.509 0 110.321C0.00290363 38.5728 57.8509 -31 143.81 -31C158.991 -31 172.629 -28.6244 186.355 -24.2402C177.447 -26.2545 165.631 -28.2853 152.558 -28.2853C72.4639 -28.2853 15.035 30.7107 15.035 105.553C15.035 134.773 23.7923 160.496 38.896 180.831L38.8728 202.256L52.7357 196.335C75.657 217.787 107.395 230.085 143.358 229.576ZM211.442 6.01878C211.442 6.01878 212.789 7.62221 212.127 9.25565C211.665 10.3856 210.565 10.7884 209.34 10.9966C192.077 13.9459 165.184 19.2422 132.445 27.9458C109.441 34.0681 72.9871 46.1906 60.7564 50.3338C59.3235 50.8189 58.1687 50.8373 57.375 49.839C56.5958 48.8582 56.9279 46.5586 57.123 45.8033C57.123 45.8033 62.3119 14.9567 96.9668 -3.76832C116.094 -14.1112 143.381 -18.1779 163.425 -16.0361C200.861 -12.0314 211.442 6.01878 211.442 6.01878ZM230.418 139.27C241.72 137.991 249.54 133.46 253.832 129.258C257.743 125.425 258.656 120.147 258.662 116.227C258.819 110.466 258.662 92.2883 258.662 92.2883L228.751 98.7427C228.751 98.7427 228.749 100.992 228.74 105.712C228.795 110.321 231.023 112.831 235.867 111.942C237.386 111.694 239.723 110.951 239.723 110.951L239.763 116.647C239.762 116.639 239.762 116.64 239.762 116.65C239.764 116.836 239.803 119.903 232.668 121.31C222.804 122.855 218.321 116.801 218.204 106.103C218.398 94.6386 224.898 88.0269 232.782 86.2162C239.957 84.575 244.614 85.6407 247.693 86.3455L247.693 86.3455C248.421 86.512 249.06 86.6584 249.624 86.7441C259.531 88.2238 262.34 73.4097 253.328 69.935C246.666 67.2584 238.023 66.7748 229.784 68.4157C218.783 70.6039 197.148 79.7878 197.088 109.629C197.147 133.342 214.675 141.069 230.418 139.27ZM143.015 160.904C142.219 161.184 133.012 164.337 133.012 164.337L132.994 93.7243L143.266 90.6203C143.266 90.6203 150.236 88.1124 154.449 92.3138C162.328 100.183 174.376 115.271 174.376 115.271C174.376 115.271 174.388 97.2307 174.388 94.0869C174.388 85.2071 178.453 81.8432 183.737 80.3484C188.329 79.0484 193.861 77.8764 193.861 77.8764C193.861 77.8764 193.904 121.285 193.87 139.07C193.766 144.382 190.331 148.148 186.206 149.354C182.215 150.523 177.857 150.217 174.379 146.631L152.971 122.001C152.971 122.001 152.985 138.101 153.078 146.357C153.111 153.961 150.415 158.355 143.015 160.904ZM126.585 95.4888C126.585 95.4888 120.142 97.3796 114.9 99.2734C108.093 101.736 104.169 105.677 104.169 115.987C104.169 125.457 104.152 174.744 104.152 174.744C104.152 174.744 110.115 172.704 115.675 170.605C123.579 167.624 126.562 163.556 126.562 155.251C126.562 148.113 126.585 95.4888 126.585 95.4888ZM81.1587 112.94C83.3033 109.641 88.3531 106.657 94.2359 109.333C99.5772 111.762 101.046 117.599 98.1265 122.311C95.9269 125.859 82.4723 147.093 82.4723 147.093L97.7607 162.503C100.774 165.838 101.611 173.286 96.2087 177.654C90.2343 182.487 83.4636 180.519 79.7785 176.687L62.996 158.855L62.9777 181.118C62.9777 181.118 63.0385 185.443 61.4035 188.022C59.6247 190.82 56.677 191.657 56.677 191.657L41.6608 197.961L41.7274 127.751L63.0443 118.908L63.0761 143.736L81.1587 112.94ZM85.9271 191.73C85.1304 193.559 86.9477 195.374 86.9477 195.374C94.7393 205.115 129.334 217.466 166.883 208.423C224.227 194.605 236.343 154.183 237.715 148.476C237.998 147.312 238.22 145.44 237.137 144.317C236.228 143.379 234.936 143.37 233.143 143.783C193.315 153.112 127.038 173.269 88.828 189.582L88.6795 189.645L88.557 189.697C87.0996 190.316 86.4099 190.609 85.9271 191.73ZM65.6929 98.4138C65.8631 108.166 58.7471 113.354 49.4772 117.146L30.4882 125.11L30.4444 74.3243C30.4444 74.3243 42.4079 69.5093 46.3111 68.1077C57.4061 64.1221 63.93 68.9266 63.93 76.2432C63.93 81.1254 61.813 85.2752 57.2185 88.922C61.743 89.6669 65.6064 93.3358 65.6929 98.4138ZM45.9484 87.9726C45.1666 88.3489 44.482 88.6513 43.5504 89.0103L43.5563 78.261C47.7434 76.1242 50.8512 77.087 50.822 80.8125C50.7987 84.0839 48.7819 86.6105 45.9484 87.9726ZM43.6535 96.8299C48.884 94.2381 51.9111 96.3355 51.9636 100.179C52.0356 103.957 49.6328 106.476 46.5746 107.877C45.3338 108.447 43.6428 109.186 43.6428 109.186L43.6535 96.8299ZM101.734 54.664C101.734 50.3283 98.7977 49.1752 95.2462 50.2134C92.3749 51.0483 89.0303 52.3745 89.0303 52.3745L89.0073 84.3777C88.9728 87.5652 88.487 91.5555 84.6203 92.5441C81.6522 93.304 80.2486 91.2928 80.2458 88.1111L80.2036 61.9168C80.2036 57.5587 77.2183 56.2539 73.6783 57.4468C69.6985 58.7963 67.3071 59.7684 67.3071 59.7684C67.3071 59.7684 67.3531 82.4307 67.2985 91.4933C67.2477 102.117 74.46 107.42 85.4529 104.123C95.1504 101.211 101.626 95.6996 101.749 81.5511L101.734 54.664ZM211.497 62.4547C211.497 65.8867 209.751 67.8728 206.951 68.4787C198.618 70.2933 183.468 73.8736 183.468 73.8736L183.576 27.4198C191.544 25.5888 204.32 23.0276 211.041 21.8371C211.041 21.8371 211.012 25.4212 211.012 27.232C211.012 30.0128 210.042 32.0336 207.101 32.6539C203.326 33.4496 196.322 34.9165 196.322 34.9165L196.325 42.0337L209.799 39.1652C209.799 39.1652 209.816 41.5723 209.816 44.3541C209.816 47.3362 208.454 48.7588 205.853 49.331C203.783 49.7837 196.33 51.3691 196.33 51.3691L196.302 60.3453L211.509 57.0116C211.509 57.0116 211.497 59.3628 211.497 62.4547ZM117.904 85.9625C117.916 82.3704 117.942 73.4687 117.942 73.4687L129.046 84.8368C132.622 88.4462 137.188 86.7972 138.895 85.2059C141.775 82.5179 141.596 78.0699 139.036 75.6093L130.705 67.6743C134.496 64.5564 138.717 60.0024 138.778 52.4973C138.904 44.6143 131.908 40.1741 122.07 42.4438C115.739 43.903 104.974 47.6233 104.974 47.6233L104.953 95.4888C104.953 95.4888 110.167 93.7086 112.62 92.874C115.554 91.7617 117.873 89.33 117.904 85.9625ZM117.933 66.2921L117.922 66.298L117.925 53.0119C120.471 52.0857 125.377 50.9292 125.452 56.2137C125.534 62.2607 118.256 66.1207 117.933 66.2921ZM213.912 66.6685L213.933 20.8229C213.933 20.8229 227.47 18.4565 230.966 18.0117C240.671 16.7794 247.182 22.1053 247.049 29.6714C246.997 36.3249 242.77 40.329 239.177 42.731C239.177 42.731 245.778 50.0854 247.548 52.0311C249.924 54.6535 249.818 59.137 246.302 61.333C242.847 63.4876 239.424 62.3603 237.437 60.1903L226.539 47.5524C226.539 47.5524 226.574 55.3255 226.565 58.7192C226.533 62.0975 224.557 64.5601 221.013 65.2851L213.912 66.6685ZM226.516 40.4695C226.531 40.4695 234.042 37.641 233.956 31.6864C233.878 26.6504 228.863 27.5621 226.496 28.0848L226.516 40.4695ZM180.263 47.8574L161.27 52.1723C161.27 52.1723 161.247 54.18 161.244 57.4574C161.27 59.9149 162.993 61.5103 165.471 60.9997C167.034 60.675 168.285 60.3851 168.285 60.3851L168.314 65.6624C168.334 67.75 165.203 69.1171 161.951 69.0419C157.394 68.9234 154.867 65.3811 154.802 58.6404C154.943 49.7774 159.111 44.5742 164.788 43.1215C167.572 42.4044 170.109 42.7343 172.097 42.9927L172.206 43.0068C177.1 43.7977 179.917 41.4375 180.018 37.3913C180.12 33.0581 176.278 30.378 168.031 30.6641C150.149 31.2816 141.006 44.1349 141.006 59.4747C141.006 75.1844 151.264 82.1235 163.785 79.8596C170.861 78.4319 174.381 76.1333 176.82 73.9936C179.258 71.854 180.263 68.6537 180.263 65.9206V47.8574Z" fill="url(#paint0_linear)"/>
<defs>
<linearGradient id="paint0_linear" x1="0" y1="-31" x2="0" y2="254" gradientUnits="userSpaceOnUse">
<stop stop-color="#FAAF18"/>
<stop offset="1" stop-color="#FAAF18" stop-opacity="0.01"/>
</linearGradient>
</defs>
</svg>
