<svg width="35" height="35" viewBox="0 0 35 35" fill="none" xmlns="http://www.w3.org/2000/svg">
<path d="M30.2679 0H4.71412C2.11077 0 0.000244141 2.11044 0.000244141 4.71388V30.2678C0.000244141 32.8712 2.11068 34.9817 4.71412 34.9817H17.3171L17.3386 22.4811H14.091C13.6689 22.4811 13.3263 22.1399 13.3247 21.7178L13.3091 17.6883C13.3075 17.264 13.6511 16.9191 14.0755 16.9191H17.3172V13.0256C17.3172 8.50731 20.0767 6.04704 24.1074 6.04704H27.4148C27.838 6.04704 28.1811 6.39011 28.1811 6.81336V10.211C28.1811 10.6341 27.8383 10.9771 27.4153 10.9773L25.3855 10.9783C23.1935 10.9783 22.7691 12.0199 22.7691 13.5485V16.9192H27.5856C28.0446 16.9192 28.4006 17.32 28.3466 17.7757L27.869 21.8052C27.8233 22.1908 27.4963 22.4813 27.108 22.4813H22.7906L22.7691 34.9819H30.2681C32.8714 34.9819 34.9818 32.8714 34.9818 30.2681V4.71388C34.9818 2.11044 32.8713 0 30.2679 0Z" fill="#475993"/>
</svg>
